<?xml version="1.0" standalone="no"?>
<!DOCTYPE svg PUBLIC "-//W3C//DTD SVG 20010904//EN"
 "http://www.w3.org/TR/2001/REC-SVG-20010904/DTD/svg10.dtd">
<svg version="1.0" xmlns="http://www.w3.org/2000/svg"
 width="1080.000000pt" height="1080.000000pt" viewBox="0 0 1080.000000 1080.000000"
 preserveAspectRatio="xMidYMid meet">

<g transform="translate(0.000000,1080.000000) scale(0.100000,-0.100000)"
fill="#000000" stroke="none">
<path d="M5906 8078 c-9 -24 -31 -90 -50 -148 -45 -140 -71 -197 -93 -209 -39
-20 -225 -62 -236 -52 -25 19 -216 110 -299 141 l-88 33 -114 -11 c-71 -7
-126 -8 -146 -2 -45 13 -140 68 -296 171 -126 83 -204 118 -204 91 0 -12 109
-114 235 -219 52 -43 94 -81 94 -84 1 -3 -41 -25 -92 -48 l-93 -42 -117 46
c-65 25 -127 45 -138 45 -32 0 -126 -29 -200 -61 -124 -54 -152 -55 -276 -15
-59 19 -146 48 -193 65 -47 17 -95 31 -106 31 -31 0 -38 -27 -11 -44 207 -127
257 -160 257 -168 0 -5 -15 -17 -32 -26 -18 -9 -59 -44 -90 -76 l-56 -59 -90
17 c-49 9 -111 16 -136 16 -55 0 -123 -25 -137 -51 -9 -17 -18 -18 -92 -13
l-83 7 -28 -34 c-16 -18 -50 -80 -77 -138 -44 -94 -59 -115 -152 -210 -94 -96
-147 -159 -147 -175 0 -18 40 0 94 42 84 67 175 124 187 117 5 -4 9 -24 9 -46
0 -32 -8 -50 -39 -87 -46 -54 -71 -108 -71 -151 0 -25 49 -172 101 -303 6 -15
31 -39 56 -53 40 -24 50 -38 102 -149 51 -108 161 -286 181 -294 4 -1 13 4 19
12 10 12 3 44 -38 168 -27 84 -51 166 -53 183 -3 27 0 30 37 37 69 12 357 9
382 -5 12 -7 80 -67 152 -134 133 -124 177 -155 243 -167 32 -6 49 -21 113
-99 42 -51 104 -132 138 -182 34 -49 81 -111 105 -137 46 -49 78 -63 68 -30
-2 9 -10 42 -16 72 -7 31 -38 112 -69 180 l-58 125 96 6 c113 8 132 15 214 73
l62 44 102 -49 c127 -61 230 -96 328 -111 l75 -12 -37 -39 c-21 -21 -77 -68
-125 -104 -48 -36 -89 -72 -92 -79 -13 -33 55 -8 271 99 125 63 291 139 369
170 l141 57 123 0 c116 0 130 2 252 41 71 22 164 55 208 74 l79 34 53 -29 c29
-16 63 -30 76 -30 52 0 35 -82 -32 -157 -24 -26 -50 -61 -58 -78 -24 -45 -38
-104 -27 -111 9 -5 157 124 254 222 l50 52 128 7 127 7 46 38 c41 34 161 90
192 90 16 0 16 0 -13 -128 -26 -113 -31 -162 -17 -162 11 0 49 62 76 127 63
151 150 321 179 351 81 85 147 134 199 148 29 7 61 23 70 34 9 12 30 60 45
107 l28 87 120 89 c66 48 139 100 162 115 41 26 52 45 34 56 -5 3 -68 -23
-140 -59 -73 -36 -138 -65 -145 -65 -9 0 -20 26 -30 72 -9 39 -21 77 -26 83
-6 7 -13 57 -17 111 l-6 99 -43 40 c-37 35 -47 54 -79 155 -47 143 -95 252
-109 247 -13 -5 -10 -84 10 -247 8 -63 14 -121 14 -127 0 -9 -20 -13 -67 -13
l-66 0 -51 58 c-89 99 -137 141 -203 174 l-63 31 -194 -5 c-106 -3 -199 -2
-207 3 -21 11 -92 79 -88 83 2 2 39 31 81 65 107 84 218 190 218 208 0 8 -6
13 -12 10 -7 -3 -64 -26 -127 -52 -63 -26 -140 -59 -170 -74 -90 -45 -115 -49
-345 -54 l-218 -5 7 173 c7 165 4 215 -15 215 -5 0 -15 -19 -24 -42z m4 -161
c-6 -56 -14 -118 -17 -139 -5 -33 -3 -38 27 -53 26 -13 59 -17 159 -16 69 1
151 -3 181 -9 30 -6 82 -13 115 -16 60 -5 61 -5 170 59 61 36 125 75 144 87
18 11 35 19 37 17 2 -1 -56 -45 -127 -96 -72 -52 -133 -99 -135 -106 -5 -13
394 -413 434 -434 20 -10 56 -12 154 -9 101 5 128 3 128 -7 0 -8 -12 -16 -27
-19 -59 -13 -181 -25 -248 -26 l-70 0 -90 93 c-91 95 -350 330 -397 361 -46
30 -184 38 -358 20 -197 -20 -254 -28 -480 -74 -102 -21 -227 -46 -278 -55
-51 -10 -95 -22 -98 -27 -8 -12 11 -26 134 -100 57 -35 118 -75 135 -91 l32
-29 -35 22 c-110 66 -395 201 -438 206 -49 6 -246 64 -239 70 2 2 27 -3 56
-12 85 -25 94 -11 16 26 -60 29 -66 34 -44 38 15 2 56 -6 90 -18 98 -32 166
-34 343 -10 215 28 531 87 564 104 15 8 34 22 43 32 22 26 84 179 106 265 23
91 28 73 13 -54z m-1072 -132 c3 -12 -2 -16 -14 -13 -11 2 -20 12 -22 23 -2
11 -11 29 -21 40 -11 14 -6 12 19 -6 19 -15 37 -34 38 -44z m397 -36 c33 -23
51 -39 40 -36 -11 2 -56 14 -99 26 -86 23 -142 26 -166 11 -11 -7 0 -10 36
-10 57 0 281 -53 298 -70 8 -8 4 -9 -14 -2 -14 6 -75 20 -135 32 -167 34 -290
15 -485 -75 -52 -24 -153 -69 -225 -100 -152 -66 -324 -160 -332 -182 -3 -9
13 -54 36 -100 l42 -85 -30 21 c-17 12 -50 45 -75 73 l-45 51 -76 -16 c-94
-21 -123 -21 -193 -1 -30 9 -94 24 -141 34 -69 15 -78 19 -46 20 80 2 8 20
-144 37 -114 13 -154 14 -172 6 -20 -10 -12 -12 56 -14 l80 -2 -66 -7 c-37 -5
-76 -13 -87 -19 -37 -20 -93 -99 -158 -223 l-63 -123 -1 65 c0 52 5 72 23 100
13 19 50 85 82 145 32 61 65 116 73 123 10 7 47 12 96 12 64 0 123 -11 276
-49 107 -27 225 -52 261 -56 64 -7 67 -6 169 44 74 36 107 47 116 40 9 -7 22
-5 43 6 17 8 31 11 31 5 0 -5 16 -2 35 7 19 9 35 22 35 29 0 21 109 103 153
115 23 6 69 25 102 42 33 16 101 45 150 63 50 18 89 38 87 44 -1 6 11 16 28
21 16 6 27 15 24 20 -7 12 18 12 48 0 15 -6 47 -4 88 4 36 7 92 13 125 14 55
1 65 -3 120 -40z m-867 -14 c106 -35 141 -50 132 -58 -24 -21 -95 -67 -103
-67 -6 0 -2 6 9 14 18 14 18 15 -11 26 -38 14 -161 15 -198 1 -15 -6 -65 -28
-110 -50 -102 -49 -233 -101 -252 -101 -50 0 43 46 209 104 10 4 16 9 13 12
-3 4 -46 -8 -94 -25 -77 -28 -117 -47 -223 -108 l-25 -15 25 18 c14 10 44 38
67 62 36 39 40 48 31 68 -6 12 -30 33 -54 45 -24 13 -42 25 -40 26 2 2 38 -4
81 -13 101 -21 137 -14 375 75 30 11 56 20 58 21 1 0 51 -16 110 -35z m832
-60 c52 -13 113 -30 135 -38 52 -18 46 -20 -172 -48 -161 -20 -175 -21 -240
-6 -89 20 -128 36 -117 46 8 8 146 55 189 64 48 11 117 5 205 -18z m2272 -187
c54 -209 57 -218 91 -238 63 -37 61 -27 53 -224 -8 -200 -16 -233 -79 -294
l-33 -32 4 198 c3 175 1 201 -15 232 -12 23 -28 37 -50 42 -28 7 -93 70 -93
90 0 4 28 5 61 1 l62 -6 -7 84 c-6 75 -11 114 -32 239 -11 69 9 18 38 -92z
m-3211 101 c19 -6 40 -13 48 -15 31 -10 -317 -191 -394 -205 -35 -7 -85 0
-135 17 -19 7 44 41 154 84 44 18 123 54 175 80 107 55 105 54 152 39z m2022
-10 c21 -5 52 -24 70 -40 l32 -30 -195 5 c-181 4 -340 22 -340 36 0 6 270 35
355 38 22 1 57 -3 78 -9z m-639 -128 c98 -47 179 -72 279 -86 52 -8 62 -18
162 -160 43 -62 120 -135 141 -135 8 0 17 12 20 26 5 19 -6 54 -45 138 -28 61
-51 117 -51 124 0 9 27 12 98 13 293 2 273 9 420 -133 69 -66 141 -127 161
-135 49 -22 181 -21 308 2 l101 18 83 -74 c45 -41 100 -90 122 -110 36 -32 39
-38 30 -65 -5 -16 -18 -30 -29 -32 -10 -2 -53 -38 -95 -79 l-77 -75 -147 28
c-181 34 -178 30 -141 167 22 84 25 127 10 127 -18 0 -62 -42 -94 -90 -44 -65
-100 -118 -133 -124 -12 -3 -47 -7 -77 -10 -30 -3 -109 -24 -175 -46 -147 -49
-193 -51 -275 -10 -32 16 -103 44 -157 61 -54 17 -115 40 -135 50 -21 11 -44
19 -53 19 -14 0 -14 -3 2 -31 19 -32 111 -109 236 -197 43 -30 75 -58 70 -62
-39 -33 -114 -80 -127 -80 -10 0 -87 32 -172 71 -209 95 -223 97 -464 66 -107
-15 -239 -31 -292 -38 l-97 -11 -50 28 c-28 16 -123 91 -211 167 -142 120
-200 158 -200 129 0 -5 46 -66 101 -138 104 -133 179 -237 179 -250 0 -18 -45
-54 -67 -54 -36 0 -305 90 -327 109 -10 9 -60 99 -110 200 -50 101 -95 183
-101 183 -18 -3 -16 -111 5 -224 24 -136 25 -154 3 -162 -9 -4 -62 -12 -117
-18 -115 -12 -225 -2 -236 22 -9 19 -71 328 -80 398 -7 58 -28 83 -45 54 -6
-10 -10 -109 -10 -245 0 -250 1 -247 -61 -247 -26 0 -36 8 -68 54 -21 30 -59
75 -85 99 -43 40 -53 45 -124 55 -43 7 -123 12 -178 12 -91 0 -102 2 -123 23
-26 26 -70 133 -62 152 2 7 26 21 53 30 105 38 160 73 260 165 57 52 123 109
147 126 51 36 67 36 232 -10 l101 -29 96 28 97 27 117 -111 c65 -61 121 -111
125 -111 24 0 -2 62 -84 197 -28 45 -47 86 -44 92 11 17 122 76 230 122 97 41
99 42 153 29 30 -6 87 -23 127 -37 57 -21 96 -27 200 -31 l129 -4 187 -93
c269 -132 407 -162 295 -63 -76 67 -114 93 -202 137 -45 23 -85 45 -88 51 -4
6 11 10 37 10 50 0 210 24 253 39 17 5 32 10 34 10 2 1 50 -21 105 -48z m182
25 c74 -22 92 -23 304 -20 168 2 212 0 175 -7 -115 -23 -123 -28 -35 -24 l85
4 -75 -14 c-41 -8 -99 -14 -127 -14 -48 -1 -53 -3 -53 -24 0 -12 16 -56 36
-97 86 -179 78 -183 -47 -20 -98 128 -93 124 -209 150 -44 9 -43 9 14 4 87 -8
61 11 -35 26 -58 9 -89 19 -108 36 -33 29 -23 30 75 0z m1252 -15 c20 -11 121
-105 225 -209 l187 -190 0 -46 c0 -25 -4 -46 -9 -46 -5 0 -78 72 -163 160 -84
89 -180 183 -213 210 -56 47 -63 50 -117 50 -38 0 -62 5 -72 15 -10 10 -27 15
-48 12 -18 -2 -25 -2 -15 0 10 3 21 11 24 19 3 8 17 14 32 14 14 1 40 7 56 15
42 19 70 18 113 -4z m-660 2 c-10 -2 -26 -2 -35 0 -10 3 -2 5 17 5 19 0 27 -2
18 -5z m-3271 -129 c-18 -38 -25 -44 -52 -44 -17 0 -41 -7 -53 -16 -23 -16
-23 -19 -17 -137 8 -149 33 -354 46 -378 16 -32 45 -39 146 -39 128 0 202 -20
273 -72 30 -22 134 -121 230 -218 109 -111 191 -186 218 -200 24 -11 107 -35
185 -51 153 -33 245 -34 352 -5 73 19 92 31 165 106 36 36 103 95 149 131 46
35 90 76 99 90 15 26 14 28 -70 140 -47 63 -98 125 -112 138 -14 14 -26 28
-26 32 0 5 71 -52 157 -126 113 -97 166 -137 191 -141 37 -7 299 16 472 42
148 22 205 15 320 -39 52 -24 145 -66 205 -93 61 -26 140 -65 177 -86 37 -21
73 -38 80 -38 7 0 19 -4 27 -9 10 -7 4 -16 -28 -37 l-43 -28 -34 19 c-19 10
-30 21 -25 24 11 7 -205 134 -219 129 -6 -2 18 -20 52 -42 71 -43 66 -42 -47
8 -44 20 -88 36 -98 36 -9 0 -48 14 -85 31 -78 35 -204 54 -302 45 -43 -3 -60
-2 -50 4 16 10 -2 8 -132 -12 -85 -12 -89 -22 -5 -15 40 4 6 -6 -95 -27 -185
-40 -209 -52 -384 -188 -71 -55 -176 -134 -233 -174 l-104 -74 -122 0 c-132 0
-155 -4 -155 -27 0 -8 32 -80 70 -161 39 -81 63 -139 54 -130 -10 10 -74 91
-144 180 l-125 163 -63 21 c-34 12 -75 30 -90 40 -45 30 -301 276 -344 332
-78 100 -175 153 -316 173 -129 18 -233 65 -261 118 -6 10 -17 81 -25 159 -15
150 -19 162 -42 162 -26 0 -110 -48 -159 -90 -80 -69 -59 -44 58 69 110 107
189 216 214 296 12 38 58 63 106 57 l36 -4 -22 -44z m3750 15 c54 0 112 -5
130 -12 33 -13 113 -80 113 -96 0 -13 -98 -24 -175 -19 l-66 4 -72 73 c-40 40
-62 68 -50 62 12 -6 66 -11 120 -12z m-3508 -48 c24 -6 23 -8 -25 -49 -52 -45
-162 -108 -171 -98 -7 7 47 91 82 129 26 28 61 33 114 18z m-94 -154 c-14 -23
-27 -30 -90 -52 -13 -5 -16 -9 -7 -12 9 -3 2 -14 -20 -29 -37 -28 -46 -19 -24
24 10 19 39 41 83 65 37 19 69 34 71 32 2 -2 -4 -14 -13 -28z m3645 -283 c-11
-38 -20 -81 -20 -95 0 -34 36 -65 85 -72 22 -3 73 -13 114 -22 95 -20 264 -45
315 -45 35 0 46 6 89 53 27 28 62 70 78 91 36 48 39 35 4 -16 -14 -20 -25 -42
-25 -49 0 -7 9 -6 25 5 28 18 30 15 14 -16 -8 -15 -8 -26 2 -44 16 -30 1 -65
-38 -91 -22 -15 -48 -18 -153 -18 -138 0 -234 15 -452 71 -128 33 -146 35
-260 32 -119 -3 -125 -4 -203 -42 -94 -45 -177 -78 -170 -66 3 5 39 28 80 52
103 60 95 70 -11 12 -57 -31 -88 -43 -93 -36 -5 8 -19 4 -43 -13 -54 -36 -82
-30 -38 8 11 9 20 21 20 26 0 12 -100 87 -195 146 -41 26 -75 49 -75 51 0 8
147 -50 233 -92 50 -24 104 -44 121 -44 17 0 76 16 130 35 85 30 163 48 302
70 24 4 46 24 104 95 40 50 74 89 76 87 2 -2 -5 -35 -16 -73z m-3096 -155 c9
-80 18 -154 22 -163 9 -24 45 -36 108 -36 69 0 156 -24 227 -61 54 -29 124
-89 103 -89 -6 0 -57 16 -115 36 -82 28 -125 37 -203 41 -73 4 -97 3 -92 -6 4
-6 31 -12 59 -13 l52 -2 -46 -3 c-45 -4 -61 1 -128 36 -31 16 -32 19 -16 28
20 12 12 33 -13 33 -12 0 -13 3 -4 12 8 8 12 69 13 203 1 215 10 211 33 -16z
m-872 -44 c19 -17 54 -63 77 -103 23 -39 52 -77 64 -84 28 -15 95 -29 177 -35
l65 -5 -65 -20 c-36 -11 -81 -22 -100 -24 -74 -10 -81 -13 -71 -32 7 -13 55
-159 109 -332 3 -8 -35 63 -84 159 -79 155 -94 178 -135 208 -26 18 -55 50
-64 70 -29 60 -95 265 -95 294 0 14 14 46 32 70 l32 44 12 -89 c11 -82 15 -92
46 -121z m1459 -110 c23 -36 35 -42 109 -65 46 -14 86 -32 88 -39 3 -10 0 -12
-13 -8 -9 4 -65 18 -124 32 -113 26 -164 23 -203 -12 -14 -13 -21 -12 -57 12
-22 15 -39 31 -36 35 2 4 27 10 54 14 75 10 77 16 52 154 -32 179 -27 183 42
42 34 -69 74 -143 88 -165z m3039 241 c0 -29 -7 -39 -56 -75 -40 -30 -64 -41
-84 -39 -26 3 -23 7 54 75 44 39 82 72 84 72 1 1 2 -14 2 -33z m280 10 c0 -2
-7 -7 -16 -10 -8 -3 -12 -2 -9 4 6 10 25 14 25 6z m-296 -110 c-5 -21 -12 -26
-38 -26 l-31 1 35 28 c19 16 36 28 38 26 2 -1 0 -14 -4 -29z m-4348 -102 c22
-9 79 -23 128 -31 99 -16 161 -37 151 -53 -9 -15 -236 -12 -255 3 -25 20 -82
97 -72 97 5 0 27 -7 48 -16z m3882 -15 c52 -11 90 -25 85 -29 -15 -15 -206
-59 -283 -65 -135 -11 -182 -25 -313 -91 l-128 -65 -45 28 c-24 15 -44 30 -44
33 0 3 22 13 48 23 27 9 69 35 94 57 61 53 211 119 303 134 57 8 190 -3 283
-25z m326 -84 c35 -7 43 -1 -142 -113 -105 -64 -159 -89 -269 -126 -154 -51
-163 -52 -260 -31 -100 23 -102 24 -73 40 31 16 345 106 455 130 116 25 164
44 204 80 19 18 40 31 46 30 5 -2 23 -6 39 -10z m-1921 -2 c-7 -2 -19 -2 -25
0 -7 3 -2 5 12 5 14 0 19 -2 13 -5z m223 -38 c53 -9 117 -26 143 -39 25 -13
65 -29 89 -36 23 -7 42 -16 42 -19 0 -4 -48 -37 -107 -74 -129 -81 -145 -83
-281 -28 -138 55 -257 91 -303 91 -48 0 -129 19 -129 31 0 8 40 17 265 63 147
29 161 30 281 11z m-1179 -20 c96 -22 243 -67 243 -75 0 -3 -13 -19 -30 -35
l-30 -29 -87 34 c-49 18 -119 48 -158 65 -67 31 -69 33 -45 43 33 14 29 14
107 -3z m2385 -7 c-40 -12 -70 -23 -67 -26 2 -2 47 5 100 17 124 29 167 23 50
-7 -167 -43 -319 -94 -440 -147 -210 -94 -502 -196 -575 -201 l-65 -5 40 37
c62 57 72 61 213 88 137 27 191 48 337 131 44 25 105 52 135 61 30 8 87 25
125 37 93 29 122 34 175 35 44 0 43 0 -28 -20z m-2769 -25 c-7 -2 -21 -2 -30
0 -10 3 -4 5 12 5 17 0 24 -2 18 -5z m3206 -155 c-68 -136 -91 -177 -75 -133
15 42 19 105 6 105 -32 0 -182 -53 -211 -75 -59 -43 -91 -53 -217 -62 l-123
-10 -102 -99 c-56 -55 -111 -107 -122 -115 -19 -13 -19 -13 -5 7 8 12 29 40
47 64 30 39 63 114 79 174 5 20 1 27 -23 39 -15 8 -47 18 -71 22 -51 8 -49 12
19 35 51 18 53 18 158 -8 81 -20 98 -28 74 -30 -40 -4 -44 -22 -5 -22 46 0
102 12 97 21 -6 8 80 43 152 60 27 7 95 36 153 64 58 29 123 56 145 59 22 4
51 16 65 26 14 11 26 20 28 20 1 0 -30 -64 -69 -142z m-3242 93 c117 -24 154
-36 219 -71 42 -24 98 -51 123 -61 45 -17 45 -17 18 -24 -63 -16 -349 36 -412
75 -43 27 -122 110 -105 110 8 0 79 -13 157 -29z m1025 -1 c19 -11 67 -24 107
-30 133 -19 259 -56 288 -84 14 -14 30 -26 36 -26 6 0 8 -2 5 -5 -3 -3 -34 4
-69 15 -82 26 -101 26 -70 0 30 -25 25 -25 -106 5 -121 28 -140 34 -237 68
l-69 24 39 26 c21 15 40 27 41 27 1 0 17 -9 35 -20z m1368 -10 c-8 -5 -19 -10
-25 -10 -5 0 -3 5 5 10 8 5 20 10 25 10 6 0 3 -5 -5 -10z m-1395 -77 c22 -9
110 -40 195 -69 205 -72 189 -64 161 -75 -24 -9 -191 1 -351 21 -79 10 -226
53 -224 65 1 5 24 25 50 46 44 34 53 38 89 33 22 -4 58 -13 80 -21z m1126 8
c36 -22 34 -23 -65 -40 -83 -15 -84 -15 -35 23 52 41 58 42 100 17z m-323 -58
c-11 -15 -11 -16 6 -9 20 7 20 7 0 -15 -24 -27 -54 -42 -156 -79 -85 -31 -154
-67 -145 -76 2 -3 67 20 143 50 91 37 150 67 173 88 l34 33 -27 -37 c-15 -20
-41 -43 -59 -51 -47 -22 -275 -112 -322 -127 -22 -7 -87 -39 -145 -71 -101
-55 -324 -170 -345 -177 -5 -2 19 16 55 41 84 58 160 125 160 142 0 9 -33 21
-97 35 -54 12 -118 28 -143 35 l-45 13 55 -6 c30 -2 52 -2 49 2 -3 3 -51 22
-105 41 -54 20 -83 33 -64 30 92 -15 124 -17 117 -9 -5 5 -30 14 -55 21 l-47
11 45 1 c25 0 54 1 65 2 11 1 67 -6 124 -16 132 -23 295 -17 393 14 36 12 126
52 200 89 103 52 135 65 141 54 5 -8 3 -20 -5 -29z m-31 -169 c-3 -3 -12 -4
-19 -1 -8 3 -5 6 6 6 11 1 17 -2 13 -5z"/>
<path d="M5918 7661 c-92 -13 -61 -23 48 -16 155 10 206 23 89 23 -49 -1 -111
-4 -137 -7z"/>
<path d="M6325 7640 c3 -5 16 -10 28 -10 18 0 19 2 7 10 -20 13 -43 13 -35 0z"/>
<path d="M6410 7596 c0 -10 243 -227 248 -222 7 7 -192 196 -224 214 -13 7
-24 11 -24 8z"/>
<path d="M5125 7549 c-75 -10 -137 -27 -100 -28 34 -1 257 28 263 33 8 8 -80
5 -163 -5z"/>
<path d="M4900 7535 c14 -7 27 -11 30 -9 6 7 -22 24 -40 23 -9 0 -5 -6 10 -14z"/>
<path d="M6741 7281 c29 -40 89 -89 89 -73 0 5 -26 31 -57 58 -52 44 -55 45
-32 15z"/>
<path d="M4885 7720 c-3 -6 1 -7 9 -4 18 7 21 14 7 14 -6 0 -13 -4 -16 -10z"/>
<path d="M4708 7656 c-58 -24 -131 -66 -113 -65 15 1 192 87 180 88 -5 0 -36
-10 -67 -23z"/>
<path d="M4467 7544 c-44 -24 -26 -27 24 -5 27 12 36 20 24 20 -11 0 -33 -7
-48 -15z"/>
<path d="M3181 7264 c-43 -59 -67 -104 -56 -104 8 0 117 162 112 167 -3 3 -28
-26 -56 -63z"/>
<path d="M3908 7313 c-27 -2 -48 -9 -48 -15 0 -14 107 -5 122 10 9 9 7 12 -7
10 -11 -1 -41 -3 -67 -5z"/>
<path d="M4212 7723 c-57 -20 -48 -26 16 -12 45 11 60 10 127 -10 42 -13 79
-20 82 -17 6 6 6 6 -81 36 -69 23 -86 24 -144 3z"/>
<path d="M4035 7670 l-20 -9 20 0 c11 0 27 4 35 9 13 9 13 10 0 9 -8 0 -24 -4
-35 -9z"/>
<path d="M7476 7190 c12 -4 31 -21 43 -36 19 -24 21 -25 21 -6 0 24 -35 52
-65 51 -19 0 -19 0 1 -9z"/>
<path d="M7534 6945 c0 -49 1 -71 3 -48 2 23 2 64 0 90 -2 26 -3 8 -3 -42z"/>
<path d="M7061 7408 c3 -2 58 -55 123 -118 65 -63 117 -110 115 -104 -8 25
-208 224 -225 224 -9 0 -15 -1 -13 -2z"/>
<path d="M7350 7125 c0 -15 77 -101 84 -94 4 4 -14 28 -38 55 -25 27 -45 45
-46 39z"/>
<path d="M3060 7350 c0 -12 45 -24 60 -15 5 3 8 11 5 16 -8 12 -65 12 -65 -1z"/>
<path d="M2980 7103 c1 -73 24 -260 33 -269 18 -18 20 15 8 134 -6 70 -14 142
-17 160 -8 53 -24 36 -24 -25z"/>
<path d="M3070 6682 c0 -13 51 -29 120 -37 30 -3 69 -8 85 -11 68 -11 -6 17
-82 31 -43 8 -88 17 -100 21 -14 4 -23 2 -23 -4z"/>
<path d="M5700 6527 c0 -8 160 -60 166 -54 7 6 -85 44 -128 52 -21 4 -38 5
-38 2z"/>
<path d="M3579 6465 c49 -64 190 -211 191 -199 0 7 -50 63 -111 125 -61 63
-97 96 -80 74z"/>
<path d="M4962 6419 c-39 -20 -196 -158 -180 -159 4 0 42 30 85 67 43 36 93
75 111 86 17 10 32 21 32 23 0 6 -2 5 -48 -17z"/>
<path d="M3854 6181 c10 -15 111 -79 136 -86 14 -3 -10 17 -53 44 -77 51 -93
59 -83 42z"/>
<path d="M4591 6134 c-41 -30 -70 -54 -64 -54 11 0 88 50 128 84 53 45 12 26
-64 -30z"/>
<path d="M4383 6043 c9 -2 23 -2 30 0 6 3 -1 5 -18 5 -16 0 -22 -2 -12 -5z"/>
<path d="M6656 6688 c-99 -13 -82 -24 32 -20 59 2 109 6 111 8 16 15 -71 22
-143 12z"/>
<path d="M7090 6620 c41 -18 171 -52 177 -47 6 7 -111 44 -163 52 -34 5 -36 4
-14 -5z"/>
<path d="M7540 6593 c-19 -8 -62 -19 -95 -22 -58 -7 -59 -8 -24 -15 43 -9 108
6 141 34 28 23 24 24 -22 3z"/>
<path d="M2868 6754 c-3 -3 -1 -22 4 -42 12 -43 57 -136 64 -130 5 5 -45 159
-55 171 -4 4 -10 5 -13 1z"/>
<path d="M2941 6530 c0 -14 4 -32 9 -40 8 -12 10 -12 9 5 0 11 -4 29 -9 40 -8
18 -9 18 -9 -5z"/>
<path d="M6603 6365 c-68 -15 -147 -47 -157 -64 -4 -6 -1 -11 8 -11 22 0 207
67 220 80 12 12 7 12 -71 -5z"/>
<path d="M6285 6225 c-24 -11 -26 -14 -9 -14 11 -1 29 6 40 14 24 18 8 18 -31
0z"/>
<path d="M7020 6239 c-58 -27 -111 -49 -117 -49 -7 0 -13 -4 -13 -10 0 -15 79
14 170 64 110 59 93 57 -40 -5z"/>
<path d="M5400 5990 c-13 -9 -13 -10 0 -10 8 0 22 5 30 10 13 9 13 10 0 10 -8
0 -22 -5 -30 -10z"/>
<path d="M5100 5979 c0 -11 30 -19 73 -19 25 0 37 4 32 9 -12 11 -105 19 -105
10z"/>
<path d="M5300 5940 c-13 -8 -12 -10 3 -10 9 0 17 5 17 10 0 12 -1 12 -20 0z"/>
<path d="M725 5158 c-16 -6 -43 -22 -58 -37 -57 -52 -57 -50 -57 -441 0 -325
2 -361 16 -367 9 -3 24 -2 33 4 14 9 16 51 18 359 3 374 4 384 55 410 32 17
194 19 250 4 138 -39 214 -212 149 -339 -39 -75 -118 -130 -187 -131 -35 0
-57 -20 -52 -47 3 -14 17 -19 71 -25 152 -15 242 -116 235 -264 -4 -90 -40
-154 -112 -199 -46 -28 -56 -30 -146 -30 l-97 0 -104 64 c-158 98 -176 106
-243 106 -66 -1 -94 -21 -75 -57 9 -16 17 -18 53 -13 53 8 81 -3 209 -84 123
-78 160 -91 256 -91 111 0 163 21 237 94 71 71 94 126 94 222 0 93 -31 167
-96 231 -29 28 -62 54 -72 57 -15 5 -10 14 34 59 163 169 89 448 -136 511 -64
18 -228 20 -275 4z"/>
<path d="M1546 5154 c-20 -19 -21 -93 -3 -118 7 -10 22 -17 33 -14 16 3 19 13
22 67 2 45 -1 67 -10 72 -18 12 -24 11 -42 -7z"/>
<path d="M2254 5156 c-135 -31 -240 -114 -297 -234 l-32 -67 -3 -310 c-2 -281
-1 -313 15 -345 22 -42 87 -79 112 -63 25 16 21 57 -7 61 -51 7 -53 26 -50
349 l3 298 28 56 c57 116 167 186 309 195 101 7 140 -11 157 -73 7 -24 11
-208 11 -505 l0 -467 -297 -3 c-325 -3 -329 -4 -396 -67 -74 -68 -97 -198 -34
-189 17 2 25 14 34 51 15 62 35 92 76 114 29 16 65 18 364 18 319 0 333 -1
359 -21 41 -30 66 -68 73 -110 11 -69 71 -75 71 -7 -1 79 -66 167 -144 193
l-35 11 -3 497 -3 497 -25 43 c-13 24 -39 52 -58 64 -43 27 -145 33 -228 14z"/>
<path d="M2840 5155 c-22 -26 -8 -49 36 -57 23 -5 52 -20 65 -34 l24 -26 5
-526 5 -527 30 0 30 0 5 225 c5 240 7 249 59 293 46 39 102 44 159 15 44 -22
51 -33 173 -253 84 -152 137 -238 158 -253 53 -41 140 -41 141 0 0 15 -33 38
-55 38 -42 0 -72 40 -186 250 -126 232 -159 274 -237 296 l-52 15 208 218
c178 184 210 223 219 260 12 47 9 67 -13 75 -25 9 -39 -3 -54 -49 -12 -36 -62
-94 -265 -305 l-250 -260 -5 247 c-4 205 -8 253 -21 278 -23 41 -51 64 -96 81
-50 17 -68 17 -83 -1z"/>
<path d="M3821 5156 c-21 -26 -4 -53 37 -60 58 -9 77 -37 112 -171 113 -429
194 -724 206 -747 8 -15 23 -32 34 -38 27 -14 25 -36 -5 -65 -22 -23 -32 -25
-119 -25 -74 0 -98 -4 -111 -16 -9 -9 -14 -23 -11 -31 3 -8 6 -17 6 -19 0 -2
48 -4 106 -4 119 0 161 13 195 62 19 26 359 1062 359 1093 0 19 -25 36 -43 29
-11 -4 -42 -87 -92 -242 -243 -754 -236 -735 -251 -721 -13 14 -106 346 -195
693 -23 92 -52 182 -63 199 -38 56 -139 95 -165 63z"/>
<path d="M4924 5151 c-47 -22 -80 -59 -94 -110 -7 -23 -10 -212 -8 -546 l3
-510 30 0 30 0 5 527 5 528 28 27 27 28 177 3 c187 4 223 -3 246 -42 9 -15 13
-160 17 -540 4 -463 7 -520 21 -529 9 -6 24 -7 33 -4 14 6 16 54 16 527 0 566
1 559 -56 611 -47 42 -84 49 -268 49 -145 0 -177 -3 -212 -19z"/>
<path d="M6115 5156 c-129 -31 -252 -131 -296 -241 -23 -59 -24 -68 -29 -430
-4 -332 -7 -374 -23 -398 -9 -15 -30 -29 -45 -33 -56 -12 -73 -23 -70 -47 2
-18 10 -23 40 -25 52 -4 105 23 136 71 l27 40 5 381 5 381 29 53 c38 67 102
127 174 160 48 22 72 26 145 27 88 0 89 0 118 -33 l29 -32 0 -513 c0 -281 4
-518 9 -525 4 -8 19 -12 32 -10 l24 3 3 510 c1 281 0 524 -3 542 -8 43 -50 92
-100 114 -47 22 -134 24 -210 5z"/>
<path d="M6725 5151 c-46 -21 -79 -54 -94 -94 -7 -19 -11 -185 -11 -485 0
-424 2 -460 19 -498 10 -23 34 -52 52 -65 33 -24 37 -24 259 -24 214 0 225 1
228 19 8 40 -20 46 -231 46 l-199 0 -29 29 -29 29 0 181 0 181 29 32 29 33
150 5 c132 4 154 8 178 26 44 32 52 51 31 71 -17 17 -19 17 -57 -4 -35 -21
-53 -23 -162 -23 -102 0 -130 -3 -161 -19 l-37 -19 0 229 0 229 29 32 29 33
214 5 c195 5 213 7 216 23 8 43 -9 47 -217 47 -169 0 -201 -3 -236 -19z"/>
<path d="M7340 5155 c-21 -25 -3 -52 38 -59 22 -3 48 -17 63 -32 l24 -26 5
-526 5 -527 30 0 30 0 5 227 c5 209 7 229 26 254 48 64 61 69 237 74 147 5
165 7 200 28 l37 24 1 -234 c1 -234 5 -267 39 -315 27 -36 85 -65 127 -61 33
3 38 6 38 28 0 19 -7 27 -30 34 -16 5 -41 14 -54 20 -50 23 -51 38 -51 579 0
497 -2 527 -31 527 -4 0 -15 -7 -23 -16 -14 -13 -16 -48 -16 -227 0 -192 -2
-215 -20 -244 -37 -61 -58 -67 -230 -73 -144 -5 -158 -7 -203 -32 l-47 -27 0
237 c0 209 -3 242 -19 277 -22 48 -44 69 -94 90 -46 19 -71 19 -87 0z"/>
<path d="M8361 5156 c-20 -24 -9 -50 24 -56 43 -9 73 -27 87 -53 10 -17 14
-147 18 -542 l5 -520 24 -3 c13 -2 28 2 32 10 5 7 9 108 9 224 0 202 1 212 23
244 47 70 61 74 240 80 147 5 165 7 200 28 l37 24 0 -238 c0 -221 2 -241 21
-281 29 -60 71 -87 134 -88 44 0 50 3 53 22 4 24 -14 35 -71 48 -17 3 -35 18
-47 38 -19 31 -20 53 -20 543 0 551 0 551 -49 524 -20 -10 -21 -19 -21 -228 0
-197 -2 -220 -20 -249 -37 -61 -58 -67 -229 -73 -146 -5 -159 -7 -203 -32
l-48 -27 0 237 c0 220 -1 239 -21 280 -35 72 -146 127 -178 88z"/>
<path d="M9774 5154 c-146 -45 -258 -218 -224 -346 18 -66 42 -91 150 -158
l100 -62 -43 -41 c-34 -34 -60 -82 -136 -249 -52 -114 -102 -215 -112 -224
-10 -9 -33 -19 -50 -23 -36 -7 -55 -30 -46 -55 13 -34 111 -12 154 35 11 13
64 119 117 234 126 278 152 300 259 232 66 -42 123 -106 150 -166 17 -37 22
-75 26 -196 5 -134 8 -150 24 -153 39 -8 47 15 47 128 0 126 -11 194 -44 266
-40 88 -95 136 -303 266 -107 67 -202 133 -211 147 -35 52 -13 158 46 223 60
66 100 81 233 86 191 7 209 -13 209 -231 0 -123 -2 -135 -21 -153 -33 -29 -42
-53 -28 -70 19 -23 45 -16 77 21 40 44 45 75 40 237 -4 155 -18 194 -81 236
-38 25 -49 27 -161 29 -86 2 -136 -2 -172 -13z"/>
<path d="M1432 4923 c-14 -26 3 -53 33 -53 14 0 34 -9 45 -20 19 -19 20 -33
20 -428 0 -432 2 -449 46 -440 18 3 19 17 22 436 l2 433 -37 40 c-29 31 -48
42 -80 46 -34 4 -43 2 -51 -14z"/>
<path d="M4538 3401 c-20 -16 -21 -22 -10 -45 13 -29 42 -34 66 -10 19 18 19
20 6 43 -14 28 -37 32 -62 12z"/>
<path d="M2825 3398 c-3 -7 -4 -128 -3 -268 l3 -255 28 -3 c24 -3 27 0 27 29
l0 32 23 -21 c72 -68 181 -67 256 2 111 103 84 273 -54 337 -65 30 -139 20
-194 -27 l-30 -25 -3 103 c-3 98 -4 103 -26 106 -12 2 -24 -3 -27 -10z m265
-196 c50 -25 80 -74 80 -134 0 -87 -48 -143 -132 -154 -88 -11 -158 56 -158
151 0 86 65 155 145 155 17 0 46 -8 65 -18z"/>
<path d="M5887 3403 c-4 -3 -7 -125 -7 -270 l0 -263 23 0 c23 0 24 2 30 125 9
168 32 210 125 222 31 4 44 0 66 -19 35 -30 45 -78 46 -220 l0 -108 26 0 26 0
-4 148 c-2 125 -6 152 -23 181 -45 77 -139 90 -221 32 l-44 -31 0 105 c0 95
-2 105 -18 105 -10 0 -22 -3 -25 -7z"/>
<path d="M7445 3398 c-3 -7 -4 -128 -3 -268 l3 -255 28 -3 27 -3 0 121 c0 70
5 131 11 143 36 69 102 101 160 76 48 -19 59 -58 59 -209 l0 -130 25 0 25 0 0
140 c0 155 -9 192 -55 228 -55 44 -141 37 -197 -16 l-27 -25 -3 104 c-3 99 -4
104 -26 107 -12 2 -24 -3 -27 -10z"/>
<path d="M4340 3330 l0 -70 -30 0 c-25 0 -30 -4 -30 -25 0 -21 5 -25 30 -25
l30 0 2 -167 3 -168 25 0 25 0 3 167 2 167 38 3 c29 2 37 7 37 23 0 16 -8 21
-37 23 l-38 3 0 70 0 69 -30 0 -30 0 0 -70z"/>
<path d="M5010 3331 l0 -70 -32 -3 c-25 -2 -33 -8 -33 -23 0 -15 8 -21 33 -23
l32 -3 0 -170 0 -170 28 3 27 3 3 168 2 167 35 0 c31 0 35 3 35 25 0 22 -4 25
-35 25 l-35 0 0 70 0 70 -30 0 -30 0 0 -69z"/>
<path d="M3435 3259 c-82 -31 -135 -107 -135 -195 0 -169 193 -264 320 -157
l30 25 0 -31 c0 -26 4 -31 25 -31 l25 0 0 195 0 195 -25 0 c-21 0 -25 -5 -25
-30 l0 -30 -43 30 c-48 34 -123 47 -172 29z m147 -67 c58 -34 84 -125 54 -196
-28 -68 -129 -106 -193 -72 -99 50 -121 176 -45 249 50 48 122 56 184 19z"/>
<path d="M3957 3260 c-16 -5 -44 -20 -63 -35 l-34 -26 0 30 c0 26 -4 31 -25
31 l-25 0 0 -265 0 -265 25 0 25 0 0 101 0 101 30 -25 c126 -107 320 -12 320
156 0 137 -126 235 -253 197z m140 -76 c40 -30 68 -100 59 -148 -8 -41 -46
-90 -87 -111 -91 -48 -209 27 -209 132 0 133 134 205 237 127z"/>
<path d="M4734 3260 c-33 -13 -64 -59 -64 -96 0 -42 35 -84 105 -123 52 -29
60 -42 56 -81 -3 -22 -40 -50 -66 -50 -12 0 -35 10 -49 21 l-28 22 -20 -20
-20 -20 34 -24 c50 -36 126 -34 166 4 61 59 46 136 -35 186 -87 54 -94 61 -91
89 2 16 13 32 31 42 25 14 30 13 66 -7 34 -20 41 -21 51 -8 16 19 -2 43 -47
62 -36 15 -58 16 -89 3z"/>
<path d="M5534 3254 c-51 -18 -109 -75 -125 -121 -6 -19 -9 -62 -7 -94 5 -69
39 -120 102 -152 82 -43 203 -28 260 32 24 25 25 29 11 41 -13 11 -20 11 -33
2 -10 -7 -37 -22 -61 -33 -169 -81 -314 134 -172 254 57 48 159 44 215 -8 23
-21 30 -23 46 -12 27 16 26 21 -16 55 -60 50 -143 63 -220 36z"/>
<path d="M6837 3246 c-33 -23 -35 -23 -40 -5 -3 13 -14 19 -31 19 l-26 0 0
-196 0 -195 28 3 27 3 5 135 c3 77 10 144 17 156 19 33 41 47 72 46 21 0 31 6
39 23 9 20 8 24 -11 29 -35 9 -42 7 -80 -18z"/>
<path d="M7101 3255 c-89 -28 -148 -119 -139 -215 16 -164 232 -240 356 -125
36 33 36 34 17 48 -17 13 -23 12 -57 -16 -74 -59 -184 -44 -235 32 -34 51 -38
91 -15 145 44 98 173 124 260 51 26 -21 31 -23 48 -10 18 13 18 15 -11 44 -30
32 -106 62 -154 60 -14 0 -46 -6 -70 -14z"/>
<path d="M4540 3065 l0 -195 25 0 25 0 0 195 0 195 -25 0 -25 0 0 -195z"/>
<path d="M6313 3244 c-3 -9 -3 -72 0 -140 6 -150 21 -188 87 -221 88 -45 195
-17 230 59 16 36 20 66 20 181 l0 137 -25 0 -25 0 0 -132 c0 -113 -3 -138 -19
-164 -26 -42 -79 -61 -131 -45 -69 20 -75 35 -78 197 l-3 144 -25 0 c-14 0
-27 -7 -31 -16z"/>
</g>
</svg>
